<svg width="55" height="55" viewBox="0 0 55 55" fill="none" xmlns="http://www.w3.org/2000/svg">
<path d="M13.7503 50.4167C12.4899 50.4167 11.4113 49.9683 10.5145 49.0715C9.61769 48.1747 9.16852 47.0953 9.16699 45.8333V22.9167C9.16699 21.6562 9.61616 20.5776 10.5145 19.6808C11.4128 18.784 12.4914 18.3349 13.7503 18.3333H16.042V13.75C16.042 10.5799 17.1596 7.87798 19.3947 5.64437C21.6298 3.41076 24.3317 2.29319 27.5003 2.29166C30.6705 2.29166 33.3731 3.40923 35.6082 5.64437C37.8434 7.87951 38.9602 10.5814 38.9587 13.75V18.3333H41.2503C42.5107 18.3333 43.5901 18.7825 44.4885 19.6808C45.3868 20.5792 45.8352 21.6578 45.8337 22.9167V45.8333C45.8337 47.0938 45.3853 48.1731 44.4885 49.0715C43.5916 49.9698 42.5123 50.4182 41.2503 50.4167H13.7503ZM27.5003 38.9583C28.7607 38.9583 29.8401 38.5099 30.7385 37.6131C31.6368 36.7163 32.0852 35.6369 32.0837 34.375C32.0837 33.1146 31.6353 32.036 30.7385 31.1392C29.8416 30.2424 28.7623 29.7932 27.5003 29.7917C26.2399 29.7917 25.1613 30.2408 24.2645 31.1392C23.3677 32.0375 22.9185 33.1161 22.917 34.375C22.917 35.6354 23.3662 36.7148 24.2645 37.6131C25.1628 38.5115 26.2414 38.9599 27.5003 38.9583ZM20.6253 18.3333H34.3753V13.75C34.3753 11.8403 33.7069 10.217 32.3701 8.88021C31.0333 7.5434 29.41 6.875 27.5003 6.875C25.5906 6.875 23.9673 7.5434 22.6305 8.88021C21.2937 10.217 20.6253 11.8403 20.6253 13.75V18.3333Z" fill="#1E1F22"/>
</svg>
