<svg width="41" height="41" viewBox="0 0 41 41" fill="none" xmlns="http://www.w3.org/2000/svg">
<path d="M17.8693 10.25C18.6778 10.249 19.4621 10.5265 20.0901 11.0358L28.8026 18.2279C29.1443 18.4999 29.4202 18.8455 29.6098 19.2388C29.7995 19.6322 29.898 20.0633 29.898 20.5C29.898 20.9367 29.7995 21.3678 29.6098 21.7612C29.4202 22.1545 29.1443 22.5001 28.8026 22.7721L20.0901 29.9642C19.5656 30.3844 18.9336 30.6489 18.2661 30.7274C17.5986 30.806 16.9224 30.6954 16.3147 30.4083C15.7865 30.1755 15.3365 29.7956 15.0184 29.3139C14.7004 28.8323 14.5277 28.2693 14.5209 27.6921L14.5209 13.3079C14.5277 12.7308 14.7004 12.1677 15.0184 11.6861C15.3365 11.2044 15.7865 10.8245 16.3147 10.5917C16.803 10.3696 17.3328 10.2532 17.8693 10.25Z" fill="#1E1F22"/>
</svg>
