<svg width="148" height="110" viewBox="0 0 148 110" fill="none" xmlns="http://www.w3.org/2000/svg">
<rect width="148" height="110" fill="#1E2022"/>
<path d="M35.8315 43.514C35.8315 42.31 36.7135 41.708 38.4775 41.708C39.2335 41.708 40.6755 41.736 42.8035 41.792C45.1555 41.904 46.9335 41.96 48.1375 41.96C49.1175 41.96 50.3075 41.904 51.7075 41.792C52.6595 41.736 53.2615 41.708 53.5135 41.708C55.0535 41.764 56.3555 42.044 57.4195 42.548C57.7275 42.688 57.9795 42.856 58.1755 43.052C58.3715 43.248 58.4695 43.57 58.4695 44.018C58.4695 44.634 58.2735 45.166 57.8815 45.614C57.4895 46.034 57.0135 46.244 56.4535 46.244C55.8375 46.244 54.9415 46.16 53.7655 45.992C52.7295 45.796 51.8195 45.698 51.0355 45.698C50.2795 45.698 49.7055 45.712 49.3135 45.74C49.2295 46.664 49.1875 48.876 49.1875 52.376C49.1875 56.548 49.3135 60.776 49.5655 65.06L49.6495 66.278C49.6495 67.426 48.9915 68 47.6755 68C46.6395 68 45.9395 67.762 45.5755 67.286C45.2115 66.782 45.0295 66.026 45.0295 65.018C45.0295 63.03 44.9735 60.552 44.8615 57.584C44.7495 55.12 44.6935 53.37 44.6935 52.334C44.6935 51.634 44.7775 49.492 44.9455 45.908L40.0315 45.95C38.4635 45.95 37.3715 45.81 36.7555 45.53C36.1395 45.222 35.8315 44.55 35.8315 43.514ZM64.7174 41.288C66.5934 41.288 68.3014 41.526 69.8414 42.002C71.3814 42.45 72.6414 43.122 73.6214 44.018C75.3854 45.614 76.6174 47.364 77.3174 49.268C78.0454 51.144 78.4094 53.552 78.4094 56.492C78.4094 57.108 78.3254 57.668 78.1574 58.172C78.0174 58.676 77.7794 59.32 77.4434 60.104C77.0234 60.972 76.7714 61.658 76.6874 62.162C76.1274 63.142 75.2034 64.08 73.9154 64.976C72.6554 65.872 71.2834 66.6 69.7994 67.16C68.3154 67.72 67.0134 68 65.8934 68C60.4894 68 56.6394 66.152 54.3434 62.456C53.6994 61.42 53.1954 60.342 52.8314 59.222C52.4954 58.102 52.3274 57.01 52.3274 55.946C52.3274 53.09 52.8314 50.612 53.8394 48.512C54.8754 46.384 56.3034 44.732 58.1234 43.556C59.2154 42.912 60.3494 42.38 61.5254 41.96C62.7294 41.512 63.7934 41.288 64.7174 41.288ZM56.6954 56.072C56.6954 57.584 57.0314 58.83 57.7034 59.81C58.4034 60.79 59.4674 61.854 60.8954 63.002C62.0714 63.45 62.8694 63.744 63.2894 63.884C63.7094 63.996 64.1854 64.052 64.7174 64.052C67.5454 64.052 69.7994 63.282 71.4794 61.742C73.1594 60.202 73.9994 58.088 73.9994 55.4C73.9994 53.272 73.7614 51.592 73.2854 50.36C72.8094 49.128 71.9554 48.022 70.7234 47.042C70.0794 46.51 69.2534 46.118 68.2454 45.866C67.2654 45.614 66.2014 45.488 65.0534 45.488C63.3174 45.488 61.8194 46.006 60.5594 47.042C59.2994 48.05 58.3334 49.366 57.6614 50.99C57.0174 52.614 56.6954 54.308 56.6954 56.072ZM72.639 43.514C72.639 42.31 73.521 41.708 75.285 41.708C76.041 41.708 77.483 41.736 79.611 41.792C81.963 41.904 83.741 41.96 84.945 41.96C85.925 41.96 87.115 41.904 88.515 41.792C89.467 41.736 90.069 41.708 90.321 41.708C91.861 41.764 93.163 42.044 94.227 42.548C94.535 42.688 94.787 42.856 94.983 43.052C95.179 43.248 95.277 43.57 95.277 44.018C95.277 44.634 95.081 45.166 94.689 45.614C94.297 46.034 93.821 46.244 93.261 46.244C92.645 46.244 91.749 46.16 90.573 45.992C89.537 45.796 88.627 45.698 87.843 45.698C87.087 45.698 86.513 45.712 86.121 45.74C86.037 46.664 85.995 48.876 85.995 52.376C85.995 56.548 86.121 60.776 86.373 65.06L86.457 66.278C86.457 67.426 85.799 68 84.483 68C83.447 68 82.747 67.762 82.383 67.286C82.019 66.782 81.837 66.026 81.837 65.018C81.837 63.03 81.781 60.552 81.669 57.584C81.557 55.12 81.501 53.37 81.501 52.334C81.501 51.634 81.585 49.492 81.753 45.908L76.839 45.95C75.271 45.95 74.179 45.81 73.563 45.53C72.947 45.222 72.639 44.55 72.639 43.514ZM103.112 68.042C101.264 68.042 99.5699 67.818 98.0299 67.37C96.4899 66.894 95.2299 66.208 94.2499 65.312C92.4579 63.716 91.1979 61.98 90.4699 60.104C89.7699 58.2 89.4199 55.778 89.4199 52.838C89.4199 52.222 89.5039 51.648 89.6719 51.116C89.8679 50.556 90.1199 49.94 90.4279 49.268C90.5119 49.072 90.6379 48.764 90.8059 48.344C91.0019 47.896 91.1279 47.49 91.1839 47.126C91.7159 46.146 92.6119 45.208 93.8719 44.312C95.1599 43.416 96.5459 42.702 98.0299 42.17C99.5139 41.61 100.816 41.33 101.936 41.33C107.34 41.33 111.204 43.178 113.528 46.874C114.844 49.03 115.502 51.2 115.502 53.384C115.502 56.212 114.984 58.69 113.948 60.818C112.94 62.946 111.54 64.598 109.748 65.774C108.628 66.446 107.48 66.992 106.304 67.412C105.128 67.832 104.064 68.042 103.112 68.042ZM93.7879 55.946C93.7599 57.486 94.0819 58.76 94.7539 59.768C95.4539 60.748 96.5459 61.826 98.0299 63.002C99.1499 63.422 99.9339 63.702 100.382 63.842C100.83 63.982 101.32 64.052 101.852 64.052C103.672 64.052 105.282 63.674 106.682 62.918C108.082 62.162 109.16 61.126 109.916 59.81C110.7 58.494 111.092 57.024 111.092 55.4C111.092 53.272 110.854 51.592 110.378 50.36C109.902 49.128 109.048 48.022 107.816 47.042C107.172 46.51 106.346 46.118 105.338 45.866C104.358 45.614 103.308 45.488 102.188 45.488C99.4999 45.488 97.4139 46.44 95.9299 48.344C94.4739 50.22 93.7599 52.754 93.7879 55.946Z" fill="#C9D6DE"/>
</svg>
