<svg width="20" height="22" viewBox="0 0 20 22" fill="none" xmlns="http://www.w3.org/2000/svg">
<path d="M2 20.5C1.45 20.5 0.979333 20.3043 0.588 19.913C0.196667 19.5217 0.000666667 19.0507 0 18.5V4.5C0 3.95 0.196 3.47933 0.588 3.088C0.98 2.69667 1.45067 2.50067 2 2.5H3V0.5H5V2.5H13V0.5H15V2.5H16C16.55 2.5 17.021 2.696 17.413 3.088C17.805 3.48 18.0007 3.95067 18 4.5V9.175C18 9.45833 17.904 9.696 17.712 9.888C17.52 10.08 17.2827 10.1757 17 10.175C16.7167 10.175 16.4793 10.079 16.288 9.887C16.0967 9.695 16.0007 9.458 16 9.176V8.5H2V18.5H7.8C8.08333 18.5 8.321 18.596 8.513 18.788C8.705 18.98 8.80067 19.2173 8.8 19.5C8.8 19.7833 8.704 20.021 8.512 20.213C8.32 20.405 8.08267 20.5007 7.8 20.5H2ZM15 21.5C13.6167 21.5 12.4377 21.0123 11.463 20.037C10.4883 19.0617 10.0007 17.8827 10 16.5C10 15.1167 10.4877 13.9377 11.463 12.963C12.4383 11.9883 13.6173 11.5007 15 11.5C16.3833 11.5 17.5627 11.9877 18.538 12.963C19.5133 13.9383 20.0007 15.1173 20 16.5C20 17.8833 19.5123 19.0627 18.537 20.038C17.5617 21.0133 16.3827 21.5007 15 21.5ZM16.675 18.875L17.375 18.175L15.5 16.3V13.5H14.5V16.7L16.675 18.875Z" fill="#1E1F22"/>
</svg>
