<svg width="25" height="25" viewBox="0 0 25 25" fill="none" xmlns="http://www.w3.org/2000/svg">
<g clip-path="url(#clip0_186_729)">
<path d="M17.9844 20.0767L13.2624 17.461C15.0174 16.0803 15.494 13.3668 15.494 11.8454V8.67852C15.494 6.58152 12.7078 4.24602 9.90915 4.24602C7.11127 4.24602 4.25115 6.58189 4.25115 8.67852V11.8454C4.25115 13.2288 4.8365 16.0274 6.60952 17.449L1.76562 20.0767C1.76562 20.0767 0.5 20.6407 0.5 21.3438V23.2443C0.5 23.9437 1.06773 24.5114 1.76562 24.5114H17.9844C18.683 24.5114 19.2507 23.9437 19.2507 23.2443V21.3438C19.2507 20.5983 17.9844 20.0767 17.9844 20.0767L17.9844 20.0767ZM17.7508 23.0114H2.00005V21.6705C2.10767 21.5921 2.25805 21.5013 2.37655 21.447C2.41177 21.4308 2.44702 21.414 2.4804 21.3948L7.32465 18.7676C7.7664 18.528 8.05927 18.0836 8.1039 17.5833C8.14852 17.0831 7.93965 16.593 7.54815 16.2787C6.2904 15.2703 5.75152 13.0368 5.75152 11.8455V8.67859C5.75152 7.60121 7.78252 5.74609 9.90952 5.74609C12.0759 5.74609 13.9944 7.57574 13.9944 8.67859V11.8455C13.9944 13.0203 13.6295 15.2636 12.3354 16.2817C12.1403 16.4353 11.9864 16.6349 11.8873 16.8626C11.7882 17.0902 11.7471 17.3389 11.7676 17.5863C11.7885 17.8337 11.8704 18.0719 12.0058 18.2799C12.1413 18.4879 12.3261 18.659 12.5439 18.7781L17.2659 21.3937C17.3075 21.4166 17.3604 21.4413 17.4043 21.4605C17.5149 21.5074 17.651 21.5857 17.7508 21.6547V23.0114ZM23.2337 16.3421L18.4415 13.7264C20.1965 12.3457 20.7436 9.63219 20.7436 8.11079V4.94392C20.7436 2.84692 17.8873 0.487793 15.0886 0.487793C13.2699 0.487793 11.4103 1.47667 10.328 2.74307C10.9453 2.78129 11.6259 2.78207 12.2139 2.96957C13.004 2.35419 14.0038 1.98819 15.0887 1.98819C17.255 1.98819 19.2436 3.84104 19.2436 4.94432V8.11119C19.2436 9.28604 18.8086 11.5293 17.5145 12.5474C17.3195 12.701 17.1655 12.9006 17.0664 13.1283C16.9673 13.356 16.9262 13.6046 16.9468 13.8521C16.9677 14.0994 17.0495 14.3377 17.1849 14.5456C17.3204 14.7536 17.5053 14.9247 17.723 15.0438L22.5152 17.6594C22.5568 17.6823 22.6097 17.7071 22.6535 17.7262C22.7642 17.7731 22.9003 17.8514 23 17.9204V19.2543H19.9723C20.4294 19.5993 20.5678 20.0928 20.7452 20.7543H23.234C23.9326 20.7543 24.5004 20.1866 24.5004 19.4872V17.6099C24.5 16.8637 23.2336 16.342 23.2336 16.342L23.2337 16.3421Z" fill="#1E1F22"/>
</g>
<defs>
<clipPath id="clip0_186_729">
<rect width="24" height="24" fill="white" transform="translate(0.5 0.5)"/>
</clipPath>
</defs>
</svg>
