<svg width="24" height="24" viewBox="0 0 24 24" fill="none" xmlns="http://www.w3.org/2000/svg">
<g clip-path="url(#clip0_89_1223)">
<path d="M12.325 22.25C11.8375 22.25 11.35 22.0625 10.975 21.725C10.1125 20.975 9.325 20.3 8.6125 19.7C6.475 17.8625 4.6 16.325 3.2875 14.75C1.75 12.875 1 11.1125 1 9.125C1 7.2125 1.675 5.4125 2.875 4.1C4.1125 2.75 5.8375 2 7.675 2C9.0625 2 10.375 2.45 11.5 3.3125C11.8 3.5375 12.0625 3.7625 12.325 4.0625C12.5875 3.8 12.85 3.5375 13.15 3.3125C14.275 2.45 15.55 2 16.975 2C18.85 2 20.5375 2.75 21.775 4.1C23.0125 5.4125 23.65 7.2125 23.65 9.125C23.65 11.1125 22.9375 12.875 21.3625 14.75C20.05 16.325 18.175 17.9 16.0375 19.7C15.325 20.3 14.5 21.0125 13.6375 21.725C13.3 22.0625 12.8125 22.25 12.325 22.25ZM7.675 3.6875C6.2875 3.6875 5.0125 4.25 4.075 5.225C3.175 6.2375 2.6875 7.625 2.6875 9.125C2.6875 10.6625 3.2875 12.125 4.5625 13.6625C5.8 15.125 7.6 16.6625 9.6625 18.425C10.375 19.025 11.2 19.7375 12.0625 20.4875C12.2125 20.6 12.4375 20.6 12.5875 20.4875C13.45 19.7375 14.275 19.0625 14.9875 18.425C17.0875 16.625 18.8875 15.125 20.0875 13.6625C21.3625 12.125 21.9625 10.6625 21.9625 9.125C21.9625 7.625 21.4375 6.2375 20.5375 5.2625C19.6 4.25 18.325 3.6875 16.975 3.6875C15.9625 3.6875 15.025 4.025 14.2 4.625C13.8625 4.8875 13.5625 5.1875 13.2625 5.525C13.0375 5.7875 12.7 5.975 12.325 5.975C11.95 5.975 11.65 5.825 11.3875 5.525C11.0875 5.1875 10.7875 4.8875 10.45 4.625C9.6625 4.025 8.725 3.6875 7.675 3.6875Z" fill="#FF0000"/>
</g>
<defs>
<clipPath id="clip0_89_1223">
<rect width="24" height="24" fill="white"/>
</clipPath>
</defs>
</svg>
