<svg width="23" height="21" viewBox="0 0 23 21" fill="none" xmlns="http://www.w3.org/2000/svg">
<path d="M11.325 20.25C10.8375 20.25 10.35 20.0625 9.975 19.725C9.1125 18.975 8.325 18.3 7.6125 17.7C5.475 15.8625 3.6 14.325 2.2875 12.75C0.75 10.875 0 9.1125 0 7.125C0 5.2125 0.675 3.4125 1.875 2.1C3.1125 0.75 4.8375 0 6.675 0C8.0625 0 9.375 0.45 10.5 1.3125C10.8 1.5375 11.0625 1.7625 11.325 2.0625C11.5875 1.8 11.85 1.5375 12.15 1.3125C13.275 0.45 14.55 0 15.975 0C17.85 0 19.5375 0.75 20.775 2.1C22.0125 3.4125 22.65 5.2125 22.65 7.125C22.65 9.1125 21.9375 10.875 20.3625 12.75C19.05 14.325 17.175 15.9 15.0375 17.7C14.325 18.3 13.5 19.0125 12.6375 19.725C12.3 20.0625 11.8125 20.25 11.325 20.25Z" fill="#E28C8C"/>
</svg>
