<svg width="29" height="29" viewBox="0 0 29 29" fill="none" xmlns="http://www.w3.org/2000/svg">
<path d="M22.8225 16.2868C21.4337 16.4216 20.1004 16.9118 18.9449 17.7159C16.5093 20.0511 14.4257 22.7275 12.7592 25.6614C12.5504 26.0643 12.236 26.4028 11.8495 26.6405C11.5089 26.8505 11.1214 26.9726 10.7219 26.9959C10.3225 27.0192 9.92346 26.9429 9.56075 26.7739C9.23929 26.6242 8.95335 26.4078 8.72192 26.1392C8.48916 25.8656 8.31566 25.5468 8.2124 25.2028C8.10913 24.8588 8.07833 24.4972 8.12195 24.1407L10.2913 17.7159M22.8225 16.2868L27 16.2855V3.43049C27 3.05134 26.8528 2.68747 26.5917 2.41943C26.4635 2.28786 26.3104 2.18305 26.1414 2.11105C25.9724 2.03905 25.7907 2.00131 25.607 2H24.2154C24.0316 2.00094 23.8498 2.03838 23.6805 2.11014C23.5112 2.1819 23.3579 2.28656 23.2294 2.41804C22.9669 2.68899 22.8209 3.05187 22.8225 3.4291V16.2868ZM11.6842 17.7159H4.78326C4.33606 17.7159 3.89442 17.6048 3.49861 17.3924C3.09909 17.1793 2.75772 16.8717 2.50423 16.4966C2.24677 16.1177 2.08218 15.6835 2.02379 15.2291C1.9654 14.7748 2.01485 14.3131 2.16814 13.8814L5.44572 3.88186C5.84709 2.74997 6.11235 2 8.06362 2C11.6606 2 15.5493 3.47216 18.4852 4.30545" stroke="#1E1F22" stroke-width="2.4" stroke-linecap="round" stroke-linejoin="round"/>
</svg>
