<svg width="24" height="24" viewBox="0 0 24 24" fill="none" xmlns="http://www.w3.org/2000/svg">
<path d="M18.658 13.4295C17.5469 13.5372 16.4803 13.9295 15.5559 14.5728C13.6075 16.4409 11.9406 18.582 10.6073 20.9291C10.4403 21.2514 10.1888 21.5222 9.87961 21.7124C9.6071 21.8804 9.29714 21.9781 8.97756 21.9967C8.65798 22.0153 8.33877 21.9543 8.0486 21.8191C7.79143 21.6994 7.56268 21.5263 7.37753 21.3113C7.19133 21.0925 7.05253 20.8375 6.96992 20.5623C6.8873 20.2871 6.86267 19.9977 6.89756 19.7125L8.63301 14.5728M18.658 13.4295L22 13.4284V3.14439C22 2.84107 21.8822 2.54997 21.6734 2.33554C21.5708 2.23029 21.4483 2.14644 21.3131 2.08884C21.1779 2.03124 21.0326 2.00105 20.8856 2H19.7724C19.6253 2.00076 19.4798 2.03071 19.3444 2.08811C19.209 2.14552 19.0863 2.22925 18.9835 2.33443C18.7735 2.55119 18.6567 2.8415 18.658 3.14328V13.4295ZM9.74739 14.5728H4.22661C3.86885 14.5728 3.51554 14.4839 3.19889 14.3139C2.87928 14.1434 2.60618 13.8974 2.40338 13.5972C2.19742 13.2941 2.06575 12.9468 2.01903 12.5833C1.97232 12.2198 2.01188 11.8505 2.13451 11.5051L4.75658 3.50549C5.07767 2.59997 5.28988 2 6.8509 2C9.7285 2 12.8394 3.17772 15.1882 3.84436" stroke="#8BC3E5" stroke-width="2.4" stroke-linecap="round" stroke-linejoin="round"/>
</svg>
