<svg width="24" height="24" viewBox="0 0 24 24" fill="none" xmlns="http://www.w3.org/2000/svg">
<path d="M5.34221 10.5714C6.45332 10.4636 7.51998 10.0714 8.44442 9.42923C10.3929 7.56141 12.0599 5.42063 13.3933 3.07385C13.5598 2.75127 13.811 2.48011 14.12 2.28943C14.3926 2.1207 14.7028 2.02241 15.0229 2.0034C15.3429 1.98439 15.6626 2.04527 15.9533 2.18054C16.2111 2.30175 16.4403 2.47606 16.6261 2.69204C16.8118 2.90803 16.9498 3.16081 17.0311 3.43384C17.1144 3.70939 17.1388 4.00049 17.1033 4.28604L15.3677 9.42923M5.34221 10.5714H2V20.8567C2 21.16 2.11778 21.4511 2.32667 21.6656C2.42935 21.7706 2.55184 21.8543 2.68706 21.9117C2.82228 21.9691 2.96754 21.9991 3.11444 22H4.22777C4.37486 21.9992 4.52033 21.9693 4.65575 21.9119C4.79117 21.8545 4.91384 21.7707 5.01666 21.6656C5.22443 21.4511 5.34221 21.16 5.34221 20.8567V10.5714ZM14.2533 9.42923H19.7733C20.131 9.42923 20.4844 9.51812 20.801 9.687C21.1177 9.85589 21.391 10.1025 21.5966 10.4037C21.8026 10.7068 21.9342 11.0541 21.981 11.4176C22.0277 11.7811 21.9881 12.1505 21.8655 12.4958L19.2433 20.4956C18.9233 21.3989 18.7099 22 17.1499 22C14.2722 22 11.1611 20.8223 8.8122 20.1556" stroke="#E28C8C" stroke-width="2.4" stroke-linecap="round" stroke-linejoin="round"/>
</svg>
