<svg width="29" height="29" viewBox="0 0 29 29" fill="none" xmlns="http://www.w3.org/2000/svg">
<path d="M6.17776 12.7143C7.56665 12.5796 8.89998 12.0893 10.0555 11.2865C12.4911 8.95177 14.5749 6.27579 16.2416 3.34232C16.4498 2.93909 16.7638 2.60013 17.1499 2.36179C17.4907 2.15088 17.8785 2.02801 18.2786 2.00425C18.6786 1.98049 19.0783 2.05658 19.4416 2.22568C19.7638 2.37719 20.0504 2.59507 20.2826 2.86505C20.5148 3.13503 20.6873 3.45102 20.7888 3.7923C20.893 4.13674 20.9235 4.50062 20.8791 4.85755L18.7097 11.2865M6.17776 12.7143H2V25.5709C2 25.95 2.14722 26.3139 2.40833 26.582C2.53668 26.7133 2.6898 26.8178 2.85883 26.8896C3.02785 26.9613 3.20943 26.9989 3.39305 27H4.78471C4.96857 26.9991 5.15041 26.9616 5.31969 26.8899C5.48896 26.8181 5.6423 26.7134 5.77082 26.582C6.03054 26.3139 6.17776 25.95 6.17776 25.5709V12.7143ZM17.3166 11.2865H24.2166C24.6638 11.2865 25.1055 11.3977 25.5013 11.6088C25.8971 11.8199 26.2388 12.1282 26.4957 12.5046C26.7532 12.8835 26.9178 13.3177 26.9762 13.772C27.0346 14.2264 26.9851 14.6881 26.8319 15.1198L23.5541 25.1195C23.1541 26.2486 22.8874 27 20.9374 27C17.3402 27 13.4513 25.5278 10.5152 24.6945" stroke="#1E1F22" stroke-width="2.4" stroke-linecap="round" stroke-linejoin="round"/>
</svg>
