<svg width="50" height="50" viewBox="0 0 50 50" fill="none" xmlns="http://www.w3.org/2000/svg">
<circle cx="25" cy="25" r="23.5" stroke="#1E1F22" stroke-width="3"/>
<path d="M15.6791 21C17.2346 20.8491 18.728 20.3 20.0222 19.4009C22.7501 16.786 25.0839 13.7889 26.9506 10.5034C27.1838 10.0518 27.5354 9.67215 27.9679 9.4052C28.3496 9.16898 28.784 9.03137 29.232 9.00476C29.68 8.97815 30.1277 9.06338 30.5346 9.25276C30.8955 9.42245 31.2165 9.66648 31.4765 9.96886C31.7365 10.2712 31.9297 10.6251 32.0435 11.0074C32.1601 11.3931 32.1944 11.8007 32.1446 12.2005L29.7148 19.4009M15.6791 21H11V35.3994C11 35.824 11.1649 36.2316 11.4573 36.5318C11.6011 36.6789 11.7726 36.796 11.9619 36.8763C12.1512 36.9567 12.3546 36.9987 12.5602 37H14.1189C14.3248 36.9989 14.5285 36.957 14.718 36.8766C14.9076 36.7963 15.0794 36.679 15.2233 36.5318C15.5142 36.2316 15.6791 35.824 15.6791 35.3994V21ZM28.1546 19.4009H35.8826C36.3835 19.4009 36.8781 19.5254 37.3215 19.7618C37.7648 19.9982 38.1475 20.3436 38.4352 20.7651C38.7236 21.1895 38.9079 21.6758 38.9733 22.1847C39.0388 22.6935 38.9834 23.2107 38.8117 23.6941L35.1406 34.8938C34.6926 36.1585 34.3939 37 32.2099 37C28.181 37 23.8255 35.3512 20.5371 34.4178" stroke="#1E1F22" stroke-width="2.4" stroke-linecap="round" stroke-linejoin="round"/>
</svg>
