<svg width="50" height="50" viewBox="0 0 50 50" fill="none" xmlns="http://www.w3.org/2000/svg">
<circle cx="25" cy="25" r="23.5" stroke="#1E1F22" stroke-width="3"/>
<path d="M34.3212 29.0013C32.7657 29.1522 31.2725 29.7012 29.9783 30.6019C27.2505 33.2172 24.9168 36.2148 23.0503 39.5008C22.8165 39.952 22.4643 40.3311 22.0314 40.5974C21.6499 40.8326 21.216 40.9694 20.7686 40.9954C20.3212 41.0215 19.8743 40.936 19.468 40.7467C19.108 40.5791 18.7878 40.3368 18.5285 40.0359C18.2679 39.7295 18.0735 39.3724 17.9579 38.9872C17.8422 38.6019 17.8077 38.1968 17.8566 37.7975L20.2862 30.6019M34.3212 29.0013L39 28.9997V14.6021C39 14.1775 38.8351 13.77 38.5427 13.4698C38.3991 13.3224 38.2277 13.205 38.0383 13.1244C37.849 13.0437 37.6456 13.0015 37.4399 13H35.8813C35.6754 13.0011 35.4717 13.043 35.2822 13.1234C35.0926 13.2037 34.9208 13.3209 34.7769 13.4682C34.483 13.7717 34.3194 14.1781 34.3212 14.6006V29.0013ZM21.8463 30.6019H14.1173C13.6164 30.6019 13.1218 30.4774 12.6784 30.2394C12.231 30.0008 11.8486 29.6564 11.5647 29.2361C11.2764 28.8118 11.092 28.3255 11.0266 27.8166C10.9612 27.3078 11.0166 26.7906 11.1883 26.3072L14.8592 15.1077C15.3087 13.84 15.6058 13 17.7913 13C21.8199 13 26.1752 14.6488 29.4635 15.5821" stroke="#1E1F22" stroke-width="2.4" stroke-linecap="round" stroke-linejoin="round"/>
</svg>
